<svg width="100" height="100" viewBox="0 0 100 100" fill="none" xmlns="http://www.w3.org/2000/svg">
<path d="M82.6256 46.3042C82.6256 50.7158 79.07 54.2713 74.6585 54.2713C70.247 54.2713 66.6914 50.7158 66.6914 46.3042C66.6914 41.8927 70.247 38.3372 74.6585 38.3372C79.07 38.3372 82.6256 41.8927 82.6256 46.3042Z" stroke="#111010" stroke-width="2" stroke-miterlimit="10"/>
<path d="M63.2119 69.7444C61.0445 69.7444 59.2602 67.9216 59.8768 65.8437C61.8165 59.3062 67.9794 54.6424 75.1193 54.8638C81.8648 55.0831 87.514 59.6419 89.3658 65.8388C89.987 67.9177 88.2027 69.7444 86.033 69.7444H63.2119Z" stroke="#111010" stroke-width="2" stroke-miterlimit="10"/>
<path d="M63.3332 46.3002C63.3332 53.6747 57.3415 59.6006 50.0328 59.6006C42.7242 59.6006 36.7324 53.6088 36.7324 46.3002C36.7324 38.9915 42.6583 32.9998 50.0328 32.9998C57.4073 32.9998 63.3332 38.9915 63.3332 46.3002Z" fill="#67EADD"/>
<path d="M30.3144 75.4687C27.4414 75.4687 25.6462 72.4383 27.4734 70.2212C36.0278 59.841 50.9595 56.4314 63.4647 62.8267C66.9999 64.6374 70.1117 67.1538 72.6337 70.2096C74.4661 72.4298 72.6713 75.4687 69.7926 75.4687H30.3144Z" fill="#67EADD"/>
<path d="M33.4405 46.3702C33.4405 50.7817 29.8849 54.3372 25.4734 54.3372C21.0619 54.3372 17.5063 50.7817 17.5063 46.3702C17.5063 41.9586 21.0619 38.4031 25.4734 38.4031C29.8191 38.4031 33.4405 41.9586 33.4405 46.3702Z" stroke="#111010" stroke-width="2" stroke-miterlimit="10"/>
<path d="M13.9609 69.8107C11.7935 69.8107 10.0093 67.9879 10.6258 65.91C12.5656 59.3724 18.7284 54.7087 25.8683 54.93C32.6138 55.1494 38.2631 59.7082 40.1148 65.9051C40.736 67.984 38.9518 69.8107 36.7821 69.8107H13.9609Z" stroke="#111010" stroke-width="2" stroke-miterlimit="10"/>
</svg>
